<?xml version="1.0" standalone="no"?>
<!DOCTYPE svg PUBLIC "-//W3C//DTD SVG 20010904//EN"
 "http://www.w3.org/TR/2001/REC-SVG-20010904/DTD/svg10.dtd">
<svg version="1.0" xmlns="http://www.w3.org/2000/svg"
 width="32.000000pt" height="32.000000pt" viewBox="0 0 32.000000 32.000000"
 preserveAspectRatio="xMidYMid meet">

<g transform="translate(0.000000,32.000000) scale(0.100000,-0.100000)"
fill="#000000" stroke="none">
<path d="M20 219 c-6 -22 -9 -46 -7 -52 2 -7 7 7 11 30 9 51 18 59 39 35 15
-17 15 -21 -9 -55 -14 -21 -30 -35 -36 -31 -7 4 -8 2 -4 -4 4 -7 13 -12 21
-12 7 0 16 -8 19 -18 12 -38 96 -65 141 -47 11 5 33 22 48 39 16 17 36 31 44
32 21 3 29 14 10 14 -8 0 -25 16 -37 36 -22 34 -22 36 -4 49 11 8 23 15 28 15
5 0 7 3 3 6 -3 3 -20 -4 -37 -16 -18 -13 -28 -25 -23 -29 12 -8 43 -54 43 -63
0 -15 -21 -8 -53 16 -32 24 -97 40 -97 24 0 -4 15 -8 33 -8 22 0 44 -10 67
-30 35 -29 30 -43 -6 -15 -33 25 -41 16 -9 -10 32 -26 22 -35 -11 -10 -33 25
-41 16 -9 -10 34 -27 27 -33 -10 -9 -14 9 -25 13 -25 9 0 -4 -14 5 -32 20 -18
15 -39 24 -50 22 -22 -6 -22 -3 0 35 14 25 22 29 48 25 17 -3 37 -1 45 4 10 6
1 9 -27 9 -26 0 -51 7 -67 20 -14 11 -28 20 -31 20 -3 0 -10 -18 -16 -41z m56
-95 c-5 -14 -4 -15 9 -4 18 15 34 5 18 -11 -7 -7 -19 -9 -27 -6 -18 7 -22 37
-5 37 6 0 8 -7 5 -16z m44 -29 c-7 -8 -17 -15 -22 -15 -6 0 -5 7 2 15 7 8 17
15 22 15 6 0 5 -7 -2 -15z m25 -15 c-3 -5 -11 -10 -16 -10 -6 0 -7 5 -4 10 3
6 11 10 16 10 6 0 7 -4 4 -10z m35 -11 c0 -6 -4 -7 -10 -4 -5 3 -10 11 -10 16
0 6 5 7 10 4 6 -3 10 -11 10 -16z"/>
<path d="M292 225 c0 -11 4 -31 8 -45 6 -20 8 -21 8 -5 0 11 -4 31 -8 45 -6
20 -8 21 -8 5z"/>
<path d="M188 213 c7 -3 16 -2 19 1 4 3 -2 6 -13 5 -11 0 -14 -3 -6 -6z"/>
</g>
</svg>
