<?xml version="1.0" standalone="no"?>
<!DOCTYPE svg PUBLIC "-//W3C//DTD SVG 20010904//EN"
 "http://www.w3.org/TR/2001/REC-SVG-20010904/DTD/svg10.dtd">
<svg version="1.0" xmlns="http://www.w3.org/2000/svg"
 width="512.000000pt" height="512.000000pt" viewBox="0 0 512.000000 512.000000"
 preserveAspectRatio="xMidYMid meet">

<g transform="translate(0.000000,512.000000) scale(0.100000,-0.100000)"
fill="#ff007f" stroke="none">
<path d="M1218 5109 c-167 -20 -364 -85 -514 -170 -388 -223 -644 -611 -693
-1052 -15 -133 -15 -2521 0 -2654 71 -643 579 -1151 1222 -1222 133 -15 2521
-15 2654 0 643 71 1151 579 1222 1222 15 133 15 2521 0 2654 -71 643 -579
1151 -1222 1222 -118 13 -2554 13 -2669 0z m2773 -321 c208 -57 368 -148 508
-289 141 -140 232 -300 290 -508 l26 -96 0 -1335 0 -1335 -26 -96 c-58 -208
-149 -368 -290 -508 -140 -141 -300 -232 -508 -290 l-96 -26 -1335 0 -1335 0
-96 26 c-208 58 -368 149 -508 290 -141 140 -232 300 -290 508 l-26 96 0 1335
0 1335 26 96 c58 208 149 368 289 508 166 166 385 276 615 310 33 5 645 8
1360 7 l1300 -1 96 -27z"/>
<path d="M3945 4453 c-244 -34 -410 -271 -351 -501 41 -163 145 -266 307 -308
275 -70 545 179 499 460 -25 157 -140 289 -290 334 -44 13 -125 20 -165 15z
m112 -319 c54 -34 63 -117 18 -164 -37 -38 -82 -47 -128 -25 -70 33 -85 125
-29 177 41 39 89 43 139 12z"/>
<path d="M2367 3945 c-553 -76 -1020 -492 -1161 -1037 -124 -477 15 -981 368
-1334 550 -550 1422 -550 1972 0 550 550 550 1422 0 1972 -316 315 -739 459
-1179 399z m353 -300 c240 -36 444 -139 615 -310 431 -430 431 -1120 0 -1550
-430 -431 -1120 -431 -1550 0 -431 430 -431 1120 0 1550 249 249 591 363 935
310z"/>
</g>
</svg>
