<?xml version="1.0" standalone="no"?>
<!DOCTYPE svg PUBLIC "-//W3C//DTD SVG 20010904//EN"
 "http://www.w3.org/TR/2001/REC-SVG-20010904/DTD/svg10.dtd">
<svg version="1.0" xmlns="http://www.w3.org/2000/svg"
 width="1920.000000pt" height="960.000000pt" viewBox="0 0 1920.000000 960.000000"
 preserveAspectRatio="xMidYMid meet">

<g transform="translate(0.000000,960.000000) scale(0.100000,-0.100000)"
fill="#000000" stroke="none">
<path d="M2152 5379 c-21 -6 -36 -19 -43 -36 -14 -37 -7 -245 8 -258 44 -36
66 -316 39 -475 -9 -52 -21 -99 -26 -104 -6 -6 -10 -18 -10 -28 0 -17 19 -18
339 -18 199 0 342 4 346 9 14 24 37 227 37 331 0 131 -32 302 -76 408 -15 34
-30 84 -33 111 l-5 48 -57 7 c-106 12 -485 16 -519 5z"/>
<path d="M186 5121 c-27 -58 -19 -83 29 -94 43 -10 1443 -2 1453 8 4 3 -3 32
-14 63 l-20 57 -716 3 -715 2 -17 -39z"/>
<path d="M4610 5018 c-68 -9 -78 -13 -66 -25 10 -11 13957 -15 14071 -5 l90 8
-65 14 c-57 13 -967 15 -7015 16 -4214 1 -6975 -2 -7015 -8z"/>
<path d="M3332 4998 c-18 -18 -15 -43 8 -63 18 -17 21 -17 45 -1 40 27 28 76
-20 76 -12 0 -26 -5 -33 -12z"/>
<path d="M3562 4998 c-19 -19 -14 -45 10 -62 19 -13 25 -14 43 -2 25 16 31 42
15 61 -15 18 -52 19 -68 3z"/>
<path d="M173 4859 c-14 -14 -17 -69 -7 -106 l6 -23 717 1 c394 0 734 3 756 7
l40 8 0 51 c-1 29 -4 55 -8 59 -3 4 -341 9 -749 11 -605 4 -745 3 -755 -8z"/>
<path d="M3380 4588 c-41 -5 -80 -14 -87 -19 -7 -7 -11 -37 -10 -85 l1 -74 76
0 c63 0 78 3 93 20 24 28 100 30 127 4 12 -12 12 -18 2 -34 -12 -19 -10 -20
37 -20 28 0 53 -4 56 -10 7 -11 119 -13 178 -4 32 6 35 8 21 19 -10 6 -14 17
-10 23 9 14 55 15 75 3 13 -8 13 -12 0 -27 -12 -15 -12 -17 1 -12 11 3 16 22
18 65 l3 60 -43 16 c-213 79 -246 87 -356 86 -59 -1 -141 -6 -182 -11z"/>
<path d="M305 4543 c-122 -4 -135 -8 -135 -39 0 -13 7 -40 14 -59 l15 -35 718
0 719 0 19 55 c10 30 16 58 13 61 -13 12 -1089 26 -1363 17z"/>
</g>
</svg>
