<?xml version="1.0" standalone="no"?>
<!DOCTYPE svg PUBLIC "-//W3C//DTD SVG 20010904//EN"
 "http://www.w3.org/TR/2001/REC-SVG-20010904/DTD/svg10.dtd">
<svg version="1.0" xmlns="http://www.w3.org/2000/svg"
 width="512.000000pt" height="512.000000pt" viewBox="0 0 512.000000 512.000000"
 preserveAspectRatio="xMidYMid meet">

<g transform="translate(0.000000,512.000000) scale(0.100000,-0.100000)"
fill="#ff007f" stroke="none">
<path d="M480 5104 c-167 -36 -338 -170 -414 -324 -116 -237 -72 -515 110
-705 240 -250 639 -250 878 0 183 191 226 467 109 704 -53 108 -170 225 -275
275 -132 63 -270 80 -408 50z"/>
<path d="M3616 3485 c-309 -59 -572 -227 -734 -470 l-47 -70 -3 238 -2 237
-510 0 -510 0 0 -1710 0 -1710 530 0 530 0 0 898 c0 558 4 940 11 1011 34 365
170 568 426 636 91 25 245 30 331 11 165 -35 257 -106 327 -250 90 -188 95
-254 95 -1377 l0 -929 530 0 530 0 0 1028 c0 588 -4 1087 -10 1167 -34 471
-137 771 -339 987 -136 145 -317 239 -560 290 -131 27 -479 34 -595 13z"/>
<path d="M87 3413 c-4 -3 -7 -773 -7 -1710 l0 -1703 535 0 535 0 -2 1708 -3
1707 -526 3 c-289 1 -529 -1 -532 -5z"/>
</g>
</svg>
