<?xml version="1.0" standalone="no"?>
<!DOCTYPE svg PUBLIC "-//W3C//DTD SVG 20010904//EN"
 "http://www.w3.org/TR/2001/REC-SVG-20010904/DTD/svg10.dtd">
<svg version="1.0" xmlns="http://www.w3.org/2000/svg"
 width="512.000000pt" height="512.000000pt" viewBox="0 0 512.000000 512.000000"
 preserveAspectRatio="xMidYMid meet">

<g transform="translate(0.000000,512.000000) scale(0.100000,-0.100000)"
fill="#3F3B37" stroke="none">
<path d="M3367 4624 c-408 -74 -731 -372 -838 -776 -19 -69 -23 -110 -23 -248
-1 -91 2 -184 7 -208 l7 -44 -67 7 c-441 40 -797 141 -1152 326 -328 171 -669
440 -878 691 -32 38 -62 67 -67 65 -6 -2 -27 -42 -48 -90 -144 -325 -117 -700
70 -992 55 -85 145 -186 218 -244 l75 -61 -41 0 c-88 0 -271 50 -370 100 -21
11 -43 20 -47 20 -14 0 4 -183 27 -271 91 -345 347 -618 688 -732 56 -19 96
-37 88 -40 -45 -17 -193 -29 -308 -25 l-130 6 7 -26 c11 -44 85 -184 131 -248
176 -248 465 -418 747 -441 42 -3 77 -9 77 -14 0 -16 -224 -155 -361 -223
-312 -155 -621 -222 -984 -214 l-185 4 52 -33 c77 -48 309 -165 413 -208 561
-233 1216 -286 1834 -149 909 202 1658 834 2036 1719 161 378 242 750 251
1150 l3 180 73 58 c92 75 196 174 275 262 67 76 165 207 159 212 -2 2 -32 -8
-67 -22 -133 -54 -440 -132 -486 -123 -11 2 -3 12 26 31 76 50 211 189 268
275 50 74 123 221 123 247 0 6 -61 -20 -136 -57 -136 -66 -313 -130 -451 -163
l-73 -17 -61 56 c-234 217 -571 316 -882 260z"/>
</g>
</svg>
